<svg width="44" height="13" viewBox="0 0 44 13" fill="none" xmlns="http://www.w3.org/2000/svg">
<path d="M5.21875 9.17969L7.79688 0.625H10.4062L6.44531 12H4L0.0546875 0.625H2.65625L5.21875 9.17969ZM10.625 7.69531C10.625 6.85677 10.7865 6.10938 11.1094 5.45312C11.4323 4.79688 11.8958 4.28906 12.5 3.92969C13.1094 3.57031 13.8151 3.39062 14.6172 3.39062C15.7578 3.39062 16.6875 3.73958 17.4062 4.4375C18.1302 5.13542 18.5339 6.08333 18.6172 7.28125L18.6328 7.85938C18.6328 9.15625 18.2708 10.1979 17.5469 10.9844C16.8229 11.7656 15.8516 12.1562 14.6328 12.1562C13.4141 12.1562 12.4401 11.7656 11.7109 10.9844C10.987 10.2031 10.625 9.14062 10.625 7.79688V7.69531ZM12.8828 7.85938C12.8828 8.66146 13.0339 9.27604 13.3359 9.70312C13.638 10.125 14.0703 10.3359 14.6328 10.3359C15.1797 10.3359 15.6068 10.1276 15.9141 9.71094C16.2214 9.28906 16.375 8.61719 16.375 7.69531C16.375 6.90885 16.2214 6.29948 15.9141 5.86719C15.6068 5.4349 15.1745 5.21875 14.6172 5.21875C14.0651 5.21875 13.638 5.4349 13.3359 5.86719C13.0339 6.29427 12.8828 6.95833 12.8828 7.85938ZM22.4062 12H20.1406V0H22.4062V12ZM26.9766 1.46875V3.54688H28.4219V5.20312H26.9766V9.42188C26.9766 9.73438 27.0365 9.95833 27.1562 10.0938C27.276 10.2292 27.5052 10.2969 27.8438 10.2969C28.0938 10.2969 28.3151 10.2786 28.5078 10.2422V11.9531C28.0651 12.0885 27.6094 12.1562 27.1406 12.1562C25.5573 12.1562 24.75 11.3568 24.7188 9.75781V5.20312H23.4844V3.54688H24.7188V1.46875H26.9766ZM34.5781 12C34.474 11.7969 34.3984 11.5443 34.3516 11.2422C33.8047 11.8516 33.0938 12.1562 32.2188 12.1562C31.3906 12.1562 30.7031 11.9167 30.1562 11.4375C29.6146 10.9583 29.3438 10.3542 29.3438 9.625C29.3438 8.72917 29.6745 8.04167 30.3359 7.5625C31.0026 7.08333 31.9635 6.84115 33.2188 6.83594H34.2578V6.35156C34.2578 5.96094 34.1562 5.64844 33.9531 5.41406C33.7552 5.17969 33.4401 5.0625 33.0078 5.0625C32.6276 5.0625 32.3281 5.15365 32.1094 5.33594C31.8958 5.51823 31.7891 5.76823 31.7891 6.08594H29.5312C29.5312 5.59635 29.6823 5.14323 29.9844 4.72656C30.2865 4.3099 30.7135 3.98438 31.2656 3.75C31.8177 3.51042 32.4375 3.39062 33.125 3.39062C34.1667 3.39062 34.9922 3.65365 35.6016 4.17969C36.2161 4.70052 36.5234 5.4349 36.5234 6.38281V10.0469C36.5286 10.849 36.6406 11.4557 36.8594 11.8672V12H34.5781ZM32.7109 10.4297C33.0443 10.4297 33.3516 10.3568 33.6328 10.2109C33.9141 10.0599 34.1224 9.85938 34.2578 9.60938V8.15625H33.4141C32.2839 8.15625 31.6823 8.54688 31.6094 9.32812L31.6016 9.46094C31.6016 9.74219 31.7005 9.97396 31.8984 10.1562C32.0964 10.3385 32.3672 10.4297 32.7109 10.4297ZM43.0078 5.66406C42.7005 5.6224 42.4297 5.60156 42.1953 5.60156C41.3411 5.60156 40.7812 5.89062 40.5156 6.46875V12H38.2578V3.54688H40.3906L40.4531 4.55469C40.9062 3.77865 41.5339 3.39062 42.3359 3.39062C42.5859 3.39062 42.8203 3.42448 43.0391 3.49219L43.0078 5.66406Z" fill="#A8A8B3"/>
</svg>
